<svg width="27" height="27" viewBox="0 0 27 27" fill="none" xmlns="http://www.w3.org/2000/svg">
<g clip-path="url(#clip0_1447_2707)">
<path d="M3.60352 3.31165C3.60352 2.43334 3.95562 1.59101 4.58237 0.969959C5.20912 0.348905 6.05917 0 6.94553 0L20.3136 0C21.1999 0 22.05 0.348905 22.6767 0.969959C23.3035 1.59101 23.6556 2.43334 23.6556 3.31165V25.6653C23.6555 25.815 23.6145 25.9619 23.5368 26.0904C23.4591 26.2189 23.3477 26.324 23.2145 26.3947C23.0812 26.4654 22.9311 26.499 22.7802 26.4918C22.6292 26.4846 22.483 26.437 22.3572 26.3541L13.6296 21.6929L4.90189 26.3541C4.77607 26.437 4.6299 26.4846 4.47894 26.4918C4.32798 26.499 4.1779 26.4654 4.04466 26.3947C3.91143 26.324 3.80003 26.2189 3.72235 26.0904C3.64466 25.9619 3.60359 25.815 3.60352 25.6653V3.31165ZM6.94553 1.65582C6.50235 1.65582 6.07732 1.83028 5.76395 2.1408C5.45057 2.45133 5.27452 2.87249 5.27452 3.31165V24.1187L13.1667 20.009C13.3038 19.9185 13.4648 19.8703 13.6296 19.8703C13.7943 19.8703 13.9553 19.9185 14.0924 20.009L21.9846 24.1187V3.31165C21.9846 2.87249 21.8085 2.45133 21.4952 2.1408C21.1818 1.83028 20.7568 1.65582 20.3136 1.65582H6.94553Z" fill="black"/>
</g>
<defs>
<clipPath id="clip0_1447_2707">
<rect width="26.7361" height="26.4932" fill="white" transform="translate(0.261719)"/>
</clipPath>
</defs>
</svg>
