<svg width="28" height="27" viewBox="0 0 28 27" fill="none" xmlns="http://www.w3.org/2000/svg">
<path d="M13.8109 2.20801C7.66832 2.20801 2.6709 6.16984 2.6709 11.0391C2.6709 14.2492 4.78528 17.1281 8.24092 18.6934V24.2857L14.1897 19.8646C20.1574 19.7067 24.951 15.8078 24.951 11.0391C24.951 6.16984 19.9536 2.20801 13.8109 2.20801ZM13.8109 17.6624H13.44L10.4689 19.8701V17.202L9.75485 16.9294C6.7593 15.7869 4.89891 13.5294 4.89891 11.0391C4.89891 7.38632 8.89707 4.41577 13.8109 4.41577C18.7248 4.41577 22.723 7.38632 22.723 11.0391C22.723 14.6918 18.7248 17.6624 13.8109 17.6624Z" fill="black"/>
</svg>
